# xmcd CD database file
# Generated: Do Nov 27 16:40:25 2003 by KSCD
# 
# Track frame offsets:
#       150
#       12020
#       36250
#       53870
#       71597
#       84280
#       100142
#       121732
#       142142
#       166170
#       188920
#       204782
#       223787
#       247107
#
# Disc length: 3569 seconds
#
# Revision: 9
# Processed by: cddbd v1.4PL0 Copyright (c) Steve Scherf et al.
# Submitted via: Kscd 1.3.3
#
DISCID=be0def0e
DTITLE=Thomas Stelzer Trio - Me And My Boogie Shoes
DYEAR=1900
DGENRE=
TTITLE0=Roll'em, Big Joe!
TTITLE1=Key To The Highway
TTITLE2=He, Willie
TTITLE3=Me And My Boogie Shoes
TTITLE4=She Drives Me Crazy
TTITLE5=Not Fade Away
TTITLE6=Heaven Help Us All
TTITLE7=I Hear You Knocking
TTITLE8=Gone Away
TTITLE9=Got My Mojo Working
TTITLE10=It`s A Rainy Day
TTITLE11=Don`t Say Bye Bye
TTITLE12=Bad Flat Boogie
TTITLE13=Stormy Monday Blues
EXTD=
EXTT0=A Tribute To Big Joe Turner
EXTT1=William Broonzy
EXTT2=A Tribute To Willie Dixon
EXTT3=Thomas Stelzer
EXTT4=Thomas Stelzer
EXTT5=The Alcoholic Studioversion
EXTT6=Ronald Miller
EXTT7=Dave Bartholomew
EXTT8=Thomas Stelzer
EXTT9=McKinley Morganfield
EXTT10=Lena Horne
EXTT11=Thomas Stelzer
EXTT12=Thomas Stelzer
EXTT13=Aaron "T-Bone" Walker
PLAYORDER=
